<svg width="46" height="56" viewBox="0 0 46 56" fill="none" xmlns="http://www.w3.org/2000/svg">
<path d="M44.5842 6.85344H16.5139C16.1971 5.07598 15.3095 3.44805 13.9675 2.20795C12.4267 0.784109 10.422 0 8.32289 0C3.73362 0 0 3.73363 0 8.32289C0 12.9122 3.73362 16.6458 8.32289 16.6458C9.16551 16.6458 9.99348 16.5178 10.7925 16.269C12.0445 17.4502 13.5957 18.3339 15.3477 18.7895C16.4795 19.0839 17.3394 20.0179 17.5382 21.1692L18.5943 27.2869C18.9675 29.4483 20.1702 31.322 21.981 32.5629C23.354 33.5037 24.1736 35.0378 24.1736 36.6667V49.1358C23.5401 49.5373 23.1343 50.243 23.1343 51.0216C23.1343 51.0453 23.1347 51.0689 23.1354 51.0926C21.0594 51.5169 19.3494 51.9077 18.0514 52.2545C17.1671 52.4907 16.5 52.6991 16.0118 52.8915C15.5571 53.0707 14.7105 53.4044 14.7105 54.1789C14.7105 55.2196 16.0636 55.3972 17.1508 55.5401C18.0848 55.6628 19.3788 55.765 20.9969 55.844C23.7304 55.9776 26.4996 55.9998 26.5273 56C26.5293 56 26.5314 56 26.5335 56C26.5356 56 26.5378 56 26.5397 56C26.5674 55.9998 29.3366 55.9775 32.0701 55.844C33.6882 55.765 34.9822 55.6628 35.9162 55.5401C37.0034 55.3972 38.3565 55.2196 38.3565 54.1789C38.3565 53.3558 37.5974 52.9312 34.825 52.2039C33.145 51.7632 31.052 51.3183 29.5489 51.0147C29.5471 50.4148 29.3086 49.8541 28.8934 49.4417V36.6665C28.8934 35.0377 29.7131 33.5036 31.0861 32.5628C32.8968 31.3219 34.0995 29.4482 34.4727 27.2868L35.5288 21.1691C35.7276 20.0178 36.5874 19.0837 37.7193 18.7894C41.5147 17.8024 44.3693 14.8092 45.2721 11.1234C45.2756 11.1092 45.2793 11.0952 45.2821 11.0808C45.4728 10.2879 45.5751 9.464 45.5751 8.62061V7.84459C45.5752 7.29805 45.1306 6.85344 44.5842 6.85344ZM8.32289 14.9839C4.64997 14.9839 1.66184 11.9958 1.66184 8.32289C1.66184 4.64997 4.64997 1.66184 8.32289 1.66184C10.0028 1.66184 11.6069 2.28922 12.8397 3.42847C13.8401 4.3528 14.5246 5.54575 14.8189 6.85344H13.9678C13.3101 4.31988 11.0016 2.48828 8.32289 2.48828C5.10562 2.48828 2.48828 5.10573 2.48828 8.32289C2.48828 11.54 5.10573 14.1575 8.32289 14.1575C8.56242 14.1575 8.8025 14.1413 9.04159 14.1115C9.20106 14.3717 9.3718 14.6244 9.55303 14.8695C9.14922 14.9454 8.73819 14.9839 8.32289 14.9839ZM10.8673 5.7785C10.5429 5.45409 10.0167 5.45409 9.69226 5.7785L9.44376 6.027C9.21998 6.25067 9.15064 6.57027 9.2354 6.85344H8.48312C7.93658 6.85344 7.49197 7.29805 7.49197 7.84459V8.62061C7.49197 9.46378 7.59423 10.2875 7.78487 11.0801C7.78783 11.0955 7.79177 11.1105 7.79548 11.1256C7.91022 11.5935 8.05536 12.0506 8.23102 12.4935C5.97253 12.4443 4.15002 10.593 4.15002 8.32289C4.15002 6.02197 6.02197 4.15002 8.32289 4.15002C10.0882 4.15002 11.6292 5.2617 12.2282 6.85344H10.9515C11.1877 6.52848 11.1603 6.07152 10.8673 5.7785ZM29.0975 52.6189C32.0185 53.2067 33.8524 53.6522 35.0002 53.974C32.9011 54.1802 29.5338 54.3152 26.5336 54.3382C23.5341 54.3152 20.1671 54.1802 18.0679 53.9742C19.1657 53.6663 20.8906 53.2454 23.5939 52.6949C24.3417 52.5428 24.8594 51.8425 24.798 51.0666C24.7968 51.0518 24.7962 51.0367 24.7962 51.0215C24.7962 50.7641 24.9702 50.5378 25.2195 50.471C25.5828 50.3737 25.8355 50.0445 25.8355 49.6684V36.6665C25.8355 35.5725 25.5601 34.5115 25.0546 33.568C25.519 33.5981 26.0261 33.6135 26.5336 33.6135C27.0411 33.6135 27.5482 33.5981 28.0126 33.568C27.5072 34.5116 27.2317 35.5726 27.2317 36.6665V49.8361C27.2317 50.1212 27.378 50.3864 27.619 50.5386C27.7869 50.6446 27.8872 50.825 27.8872 51.0214C27.8872 51.034 27.8868 51.0466 27.8861 51.0581C27.8382 51.7994 28.359 52.4704 29.0975 52.6189ZM43.9136 8.62061H43.9135C43.9135 9.12012 43.8715 9.61166 43.7908 10.0917H18.7766C18.3178 10.0917 17.9457 10.4637 17.9457 10.9226C17.9457 11.3815 18.3177 11.7535 18.7766 11.7535H43.3398C42.3463 14.3772 40.1357 16.4442 37.3014 17.1812C35.5394 17.6393 34.201 19.0937 33.8916 20.8865L32.8355 27.0041C32.5393 28.7198 31.5845 30.2071 30.147 31.1921C29.9241 31.3449 29.2622 31.7017 29.1414 31.7555C28.4839 32.0147 24.5889 32.0148 23.927 31.756C23.8066 31.7028 23.1439 31.3453 22.9203 31.1922C21.4828 30.2071 20.528 28.7198 20.2319 27.0042L19.1757 20.8866C18.8663 19.0938 17.5278 17.6395 15.766 17.1813C14.1622 16.7642 12.7585 15.921 11.6612 14.7925C11.6352 14.7604 11.6067 14.7308 11.5766 14.7033C10.7752 13.856 10.1442 12.8541 9.72748 11.7537H14.9108C15.3696 11.7537 15.7417 11.3817 15.7417 10.9227C15.7417 10.4639 15.3697 10.0918 14.9108 10.0918H9.27653C9.19581 9.61176 9.15381 9.12012 9.15381 8.62072V8.51528H43.9136V8.62061Z" fill="#071F41"/>
</svg>
