<svg width="51" height="56" viewBox="0 0 51 56" fill="none" xmlns="http://www.w3.org/2000/svg">
<path d="M50.2608 27.517L48.0117 25.2679V3.8683L49.9014 1.97862C50.2719 1.60817 50.2719 1.00748 49.9014 0.637138C49.5308 0.266684 48.9303 0.266684 48.5598 0.637138L46.6701 2.52681H25.2703L23.0213 0.27784C22.6509 -0.0926134 22.0502 -0.0926134 21.6799 0.27784C21.3094 0.648294 21.3094 1.24898 21.6799 1.61933L23.8328 3.77227L17.1558 32.0664C16.6052 32.7544 16.4209 33.6715 16.6788 34.528C16.9658 35.481 17.7499 36.1959 18.7252 36.3938L22.9832 37.2581C23.7904 37.4221 24.477 37.9323 24.8666 38.6581C25.2562 39.3839 25.3021 40.2379 24.9927 41.0013C24.4893 42.243 23.1721 42.943 21.8617 42.665L5.9097 39.2854C3.50782 38.7764 1.08615 40.1399 0.275128 42.457C-0.195186 43.8006 -0.0579197 45.2793 0.651597 46.5133C1.36122 47.7476 2.56993 48.6103 3.96742 48.8799L4.03348 48.8927C5.29053 49.1352 6.35803 49.9217 6.96233 51.0504C7.56652 52.1792 7.62919 53.5035 7.13394 54.6843C6.93127 55.1675 7.15877 55.7234 7.64188 55.9261C7.76175 55.9763 7.886 56.0001 8.00828 56.0001C8.37907 56.0001 8.73114 55.7814 8.88339 55.418C9.60046 53.708 9.5099 51.7897 8.63468 50.155C7.75956 48.5203 6.21333 47.3811 4.393 47.0299L4.32693 47.0171C3.47085 46.852 2.73071 46.3237 2.29616 45.5678C1.86162 44.8119 1.77762 43.9065 2.06571 43.0836C2.56227 41.6646 4.04595 40.8301 5.51617 41.1414L21.4679 44.521C23.6798 44.9896 25.901 43.8092 26.7504 41.7141C27.2726 40.4261 27.1951 38.9852 26.5376 37.7607C25.8804 36.5361 24.7222 35.6754 23.3602 35.3989L19.1022 34.5346C18.6787 34.4486 18.5365 34.1187 18.4951 33.9809C18.4614 33.8694 18.4136 33.6165 18.5586 33.3622L46.7658 26.7058L48.9188 28.8588C49.104 29.0439 49.347 29.1367 49.5897 29.1367C49.8324 29.1367 50.0753 29.0442 50.2606 28.8588C50.6311 28.4881 50.6311 27.8874 50.2608 27.517ZM44.7728 4.42403L35.9703 13.2264L27.1676 4.42403H44.7728ZM25.4099 5.34935L34.6286 14.568L19.7151 29.4816L25.4099 5.34935ZM21.0567 30.8233L35.9703 15.9097L45.189 25.1284L21.0567 30.8233ZM46.1143 23.3705L37.3118 14.568L46.1143 5.76552V23.3705Z" fill="#071F41"/>
</svg>
