<svg width="56" height="56" viewBox="0 0 56 56" fill="none" xmlns="http://www.w3.org/2000/svg">
<path d="M55.6047 31.2001L54.6082 16.6657C54.5435 15.7243 54.1154 14.8651 53.4028 14.2466C52.69 13.6281 51.7792 13.3252 50.8381 13.3938C48.9883 13.5286 47.5537 15.087 47.572 16.9416L47.6896 28.7903L42.557 35.3638C41.7376 36.4131 40.3783 36.8344 39.1451 36.5184L44.7295 29.2664C45.7097 27.9935 45.5468 26.1495 44.3588 25.0683C43.7246 24.4909 42.9044 24.2057 42.0484 24.2656C41.1928 24.3254 40.4199 24.7216 39.8719 25.3815L31.4356 35.5413C30.0443 37.217 29.2898 39.3391 29.3109 41.517L29.4418 55.0092C29.4471 55.5469 29.8841 55.9802 30.4219 55.981L44.4691 56.0001C44.4695 56.0001 44.4701 56.0001 44.4704 56.0001C44.7452 56.0001 45.0075 55.8849 45.1933 55.6825C45.3795 55.4797 45.472 55.2082 45.448 54.9338L44.8746 48.3295L54.1999 35.9362C55.2221 34.578 55.7209 32.8959 55.6047 31.2001ZM52.6317 34.7564L43.0804 47.4501C42.9349 47.6435 42.866 47.8839 42.8869 48.125L43.4001 54.036L31.3952 54.0197L31.2736 41.498C31.2569 39.784 31.8508 38.114 32.9457 36.7953L41.382 26.6353C41.5842 26.3918 41.8694 26.2456 42.185 26.2237C42.5008 26.2012 42.8037 26.3067 43.0378 26.5199C43.4762 26.9189 43.5363 27.5994 43.1745 28.069L36.8373 36.2986C36.6712 36.5143 36.6022 36.7894 36.6468 37.058C36.6914 37.3266 36.8457 37.5647 37.0726 37.7151C39.3405 39.2193 42.4293 38.7171 44.1041 36.5719L49.4478 29.7278C49.5847 29.5527 49.6578 29.3363 49.6558 29.1141L49.5347 16.9223C49.5265 16.1013 50.1618 15.4113 50.9807 15.3515C51.3992 15.3214 51.8008 15.4553 52.1163 15.729C52.4319 16.0029 52.6213 16.3832 52.65 16.8001L53.6465 31.3345C53.7304 32.5597 53.3702 33.7749 52.6317 34.7564Z" fill="#071F41"/>
<path d="M15.7494 25.3815C15.2014 24.7216 14.4285 24.3253 13.5729 24.2656C12.7178 24.206 11.8968 24.4909 11.2627 25.0683C10.0745 26.1496 9.91156 27.9937 10.8918 29.2666L16.4763 36.5185C15.2439 36.8341 13.8836 36.4133 13.0643 35.3639L7.93167 28.7904L8.0493 16.9417C8.06762 15.0872 6.63312 13.5287 4.7833 13.394C3.84353 13.3258 2.93164 13.6281 2.21864 14.2467C1.50604 14.8652 1.0779 15.7244 1.01326 16.6659L0.0165739 31.2001C-0.0997515 32.8959 0.399178 34.578 1.42111 35.9364L10.7465 48.3297L10.1731 54.9339C10.1492 55.2082 10.2417 55.4798 10.4279 55.6826C10.6138 55.8851 10.8761 56.0002 11.1507 56.0002C11.1511 56.0002 11.1516 56.0002 11.152 56.0002L25.1993 55.9811C25.737 55.9803 26.1741 55.5471 26.1793 55.0093L26.3104 41.5171C26.3315 39.3394 25.577 37.2173 24.1857 35.5416L15.7494 25.3815ZM24.2261 54.0197L12.2213 54.036L12.7345 48.125C12.7554 47.8839 12.6866 47.6435 12.541 47.4501L2.98961 34.7564C2.25109 33.775 1.89086 32.5597 1.97474 31.3345L2.97142 16.8001C3.00008 16.3832 3.18955 16.0029 3.50516 15.729C3.79133 15.4806 4.14972 15.3473 4.52474 15.3473C4.56321 15.3473 4.60181 15.3487 4.64067 15.3515C5.45966 15.4112 6.09467 16.1011 6.08656 16.9223L5.96552 29.1141C5.9633 29.3363 6.03658 29.5527 6.17344 29.7278L11.5172 36.5719C13.1922 38.7171 16.2808 39.219 18.5488 37.7153C18.7757 37.5648 18.93 37.3268 18.9746 37.0581C19.0192 36.7895 18.9501 36.5143 18.7841 36.2986L12.4468 28.0692C12.0851 27.5994 12.1452 26.919 12.5838 26.5199C12.8179 26.3067 13.1204 26.2019 13.4363 26.2237C13.752 26.2456 14.0372 26.3919 14.2394 26.6354L22.6757 36.7954C23.7706 38.1142 24.3646 39.7843 24.3478 41.4981L24.2261 54.0197Z" fill="#071F41"/>
<path d="M47.0353 11.0429C47.0353 8.09331 45.8866 5.32022 43.8009 3.23447C41.7151 1.1486 38.9421 0 35.9924 0C33.0428 0 30.2697 1.1486 28.1838 3.23434L27.8106 3.60766L27.4373 3.23434C25.3517 1.1486 22.5786 0 19.6289 0C16.6792 0 13.9062 1.1486 11.8203 3.23434C7.5148 7.53995 7.5148 14.5456 11.8204 18.8514L27.1166 34.1476C27.3083 34.3391 27.5595 34.4351 27.8106 34.4351C28.0617 34.4351 28.313 34.3393 28.5047 34.1476L43.8009 18.8513C45.8866 16.7656 47.0353 13.9925 47.0353 11.0429ZM27.8108 32.0659L13.2083 17.4635C9.66793 13.9231 9.66793 8.16253 13.2083 4.62213C14.9232 2.90722 17.2036 1.96275 19.6289 1.96275C22.0543 1.96275 24.3345 2.90722 26.0495 4.62227L27.1167 5.68948C27.3007 5.87358 27.5502 5.97695 27.8106 5.97695C28.071 5.97695 28.3206 5.87345 28.5047 5.68948L29.5717 4.62227C31.2868 2.90722 33.5671 1.96275 35.9924 1.96275C38.4178 1.96275 40.698 2.90722 42.4129 4.62227C44.128 6.33731 45.0726 8.6175 45.0726 11.0429C45.0726 13.4684 44.128 15.7485 42.4129 17.4636L27.8108 32.0659Z" fill="#071F41"/>
</svg>
