<svg width="56" height="32" viewBox="0 0 56 32" fill="none" xmlns="http://www.w3.org/2000/svg">
<path d="M53.2246 8.568H52.112V4.43308C52.112 1.98866 50.1234 0 47.679 0H31.6128C30.1234 0 28.8042 0.739047 28 1.86878C27.1958 0.738937 25.8766 0 24.3872 0H14.2939C13.8409 0 13.4736 0.367281 13.4736 0.820312C13.4736 1.27334 13.8409 1.64062 14.2939 1.64062H24.3872C25.927 1.64062 27.1797 2.8933 27.1797 4.43308V12.6373C27.1625 12.6208 27.1444 12.6054 27.127 12.5891C26.1546 11.6825 24.8368 11.1599 23.5065 11.1599H9.84255C9.77025 10.0585 9.01939 9.08972 7.98328 8.72244C7.69136 8.61897 7.3827 8.568 7.07306 8.568H5.52858V4.43308C5.52858 2.8933 6.78125 1.64062 8.32103 1.64062H11.0126C11.4657 1.64062 11.833 1.27334 11.833 0.820312C11.833 0.367281 11.4657 0 11.0126 0H8.32103C5.87661 0 3.88795 1.98866 3.88795 4.43308V8.568H2.77539C1.24502 8.568 0 9.81323 0 11.3434V19.9087C0 23.0956 2.59284 25.6885 5.77981 25.6885H6.19205C6.19205 25.6885 5.29386 28.1043 5.2932 28.1062C4.72653 29.6302 5.89291 31.3044 7.51625 31.3044H8.83597C9.57469 31.3044 10.2818 30.9527 10.7275 30.3635L14.2637 25.6885H41.7365L45.2727 30.3636C45.7184 30.9527 46.4255 31.3044 47.1641 31.3044C47.1641 31.3044 48.483 31.3044 48.4837 31.3044C50.1091 31.3044 51.2734 29.6299 50.7068 28.1062L49.8078 25.6885H50.2202C53.4072 25.6885 56 23.0956 56 19.9087V11.3434C56 9.81323 54.755 8.568 53.2246 8.568ZM28.8203 4.4333C28.8203 2.89341 30.073 1.64073 31.6128 1.64073H47.679C49.2188 1.64073 50.4714 2.89341 50.4714 4.43319V8.56811C50.4714 8.56811 48.9274 8.56811 48.9268 8.56811C47.8361 8.56811 46.7899 9.26811 46.3668 10.2724C46.2483 10.5536 46.1774 10.8557 46.1575 11.1601C46.1575 11.1601 32.4939 11.1601 32.4935 11.1601C31.1427 11.1601 29.7964 11.7036 28.8203 12.6375V4.4333ZM9.84856 12.8006H23.5065C25.532 12.8007 27.1797 14.4484 27.1797 16.4738V17.6403H9.84856V12.8006ZM9.41905 29.3737C9.28167 29.5554 9.06358 29.6638 8.83586 29.6638C8.83586 29.6638 7.52073 29.6638 7.51614 29.6638C7.01389 29.6638 6.65591 29.1485 6.83091 28.678L7.94237 25.6885H12.2065L9.41905 29.3737ZM48.4837 29.6637H47.1641C46.9364 29.6637 46.7184 29.5553 46.5811 29.3737L43.7935 25.6885H48.0576C48.0576 25.6885 49.1653 28.6675 49.1691 28.6779C49.3444 29.1495 48.9839 29.6637 48.4837 29.6637ZM50.2202 24.0478H5.77981C3.49748 24.048 1.64062 22.191 1.64062 19.9087V11.3434C1.64062 10.7177 2.14966 10.2086 2.77539 10.2086H7.07306C7.6988 10.2086 8.20783 10.7177 8.20783 11.3434V18.4605C8.20783 18.9136 8.57511 19.2808 9.02814 19.2808H39.1584C39.6115 19.2808 39.9787 18.9136 39.9787 18.4605C39.9787 18.0075 39.6115 17.6402 39.1584 17.6402H28.8203V16.4737C28.8203 14.4483 30.468 12.8006 32.4935 12.8006H46.1514V17.6403H42.4397C41.9867 17.6403 41.6194 18.0076 41.6194 18.4606C41.6194 18.9137 41.9867 19.281 42.4397 19.281H46.9717C47.4248 19.281 47.7921 18.9137 47.7921 18.4606V11.3435C47.7921 10.7178 48.3011 10.2087 48.9268 10.2087H53.2245C53.8502 10.2087 54.3593 10.7178 54.3593 11.3435V19.9087H54.3594C54.3594 22.191 52.5025 24.0478 50.2202 24.0478Z" fill="#071F41"/>
</svg>
