<svg width="55" height="56" viewBox="0 0 55 56" fill="none" xmlns="http://www.w3.org/2000/svg">
<path d="M52.8099 0H1.43375C0.645189 0 0 0.645189 0 1.43375C0 2.22232 0.645189 2.86751 1.43375 2.86751H4.52827V54.5304C4.52827 55.0561 4.81502 55.546 5.28099 55.7969C5.74696 56.0478 6.30851 56.0239 6.75059 55.7252L12.9755 51.5793L19.2242 55.7371C19.7022 56.0597 20.3354 56.0597 20.8133 55.7371L27.0382 51.5912L33.287 55.7491C33.7649 56.0717 34.3981 56.0717 34.876 55.7491L41.1009 51.6032L47.3497 55.761C47.5886 55.9164 47.8634 56 48.1383 56C48.3653 56 48.6042 55.9403 48.8193 55.8327C49.2853 55.5818 49.572 55.092 49.572 54.5662L49.5481 2.90335H52.8099C53.5985 2.90335 54.2436 2.25816 54.2436 1.4696C54.2436 0.681033 53.5985 0 52.8099 0ZM46.7164 51.8541L41.9014 48.652C41.4235 48.3294 40.7903 48.3294 40.3124 48.652L34.0875 52.8099L27.8387 48.652C27.3608 48.3294 26.7275 48.3294 26.2496 48.652L20.0247 52.798L13.776 48.652C13.2981 48.3294 12.6648 48.3294 12.1869 48.652L7.39578 51.8421V2.85556H46.7045L46.7164 51.8541Z" fill="#071F41"/>
<path d="M13.991 22.8922H29.0096C29.7981 22.8922 30.4433 22.247 30.4433 21.4584C30.4433 20.6698 29.7981 20.0247 29.0096 20.0247H13.991C13.2024 20.0247 12.5573 20.6698 12.5573 21.4584C12.5573 22.247 13.1905 22.8922 13.991 22.8922Z" fill="#071F41"/>
<path d="M13.991 27.8748H25.246C26.0345 27.8748 26.6797 27.2296 26.6797 26.4411C26.6797 25.6525 26.0345 25.0073 25.246 25.0073H13.991C13.2024 25.0073 12.5573 25.6525 12.5573 26.4411C12.5573 27.2296 13.1905 27.8748 13.991 27.8748Z" fill="#071F41"/>
<path d="M36.513 22.8922H40.2646C41.0532 22.8922 41.6984 22.247 41.6984 21.4584C41.6984 20.6698 41.0532 20.0247 40.2646 20.0247H36.513C35.7244 20.0247 35.0792 20.6698 35.0792 21.4584C35.0792 22.247 35.7125 22.8922 36.513 22.8922Z" fill="#071F41"/>
<path d="M36.513 27.8748H40.2646C41.0532 27.8748 41.6984 27.2296 41.6984 26.4411C41.6984 25.6525 41.0532 25.0073 40.2646 25.0073H36.513C35.7244 25.0073 35.0792 25.6525 35.0792 26.4411C35.0792 27.2296 35.7125 27.8748 36.513 27.8748Z" fill="#071F41"/>
<path d="M13.991 11.3865H29.0096C29.7981 11.3865 30.4433 10.7414 30.4433 9.9528C30.4433 9.16423 29.7981 8.51904 29.0096 8.51904H13.991C13.2024 8.51904 12.5573 9.16423 12.5573 9.9528C12.5573 10.7414 13.1905 11.3865 13.991 11.3865Z" fill="#071F41"/>
<path d="M13.991 16.3568H25.246C26.0345 16.3568 26.6797 15.7116 26.6797 14.923C26.6797 14.1344 26.0345 13.4893 25.246 13.4893H13.991C13.2024 13.4893 12.5573 14.1344 12.5573 14.923C12.5573 15.7116 13.1905 16.3568 13.991 16.3568Z" fill="#071F41"/>
<path d="M36.513 11.3865H40.2646C41.0532 11.3865 41.6984 10.7414 41.6984 9.9528C41.6984 9.16423 41.0532 8.51904 40.2646 8.51904H36.513C35.7244 8.51904 35.0792 9.16423 35.0792 9.9528C35.0792 10.7414 35.7125 11.3865 36.513 11.3865Z" fill="#071F41"/>
<path d="M36.513 16.3568H40.2646C41.0532 16.3568 41.6984 15.7116 41.6984 14.923C41.6984 14.1344 41.0532 13.4893 40.2646 13.4893H36.513C35.7244 13.4893 35.0792 14.1344 35.0792 14.923C35.0792 15.7116 35.7125 16.3568 36.513 16.3568Z" fill="#071F41"/>
<path d="M13.991 34.5413H29.0096C29.7981 34.5413 30.4433 33.8961 30.4433 33.1076C30.4433 32.319 29.7981 31.6738 29.0096 31.6738H13.991C13.2024 31.6738 12.5573 32.319 12.5573 33.1076C12.5573 33.8961 13.1905 34.5413 13.991 34.5413Z" fill="#071F41"/>
<path d="M13.991 39.5118H25.246C26.0345 39.5118 26.6797 38.8666 26.6797 38.078C26.6797 37.2895 26.0345 36.6443 25.246 36.6443H13.991C13.2024 36.6443 12.5573 37.2895 12.5573 38.078C12.5573 38.8666 13.1905 39.5118 13.991 39.5118Z" fill="#071F41"/>
<path d="M36.513 34.5413H40.2646C41.0532 34.5413 41.6984 33.8961 41.6984 33.1076C41.6984 32.319 41.0532 31.6738 40.2646 31.6738H36.513C35.7244 31.6738 35.0792 32.319 35.0792 33.1076C35.0792 33.8961 35.7125 34.5413 36.513 34.5413Z" fill="#071F41"/>
<path d="M36.513 39.5118H40.2646C41.0532 39.5118 41.6984 38.8666 41.6984 38.078C41.6984 37.2895 41.0532 36.6443 40.2646 36.6443H36.513C35.7244 36.6443 35.0792 37.2895 35.0792 38.078C35.0792 38.8666 35.7125 39.5118 36.513 39.5118Z" fill="#071F41"/>
</svg>
